<svg width="118" height="56" viewBox="0 0 118 56" fill="none" xmlns="http://www.w3.org/2000/svg">
<path d="M0 10C0 4.47715 4.47715 0 10 0H118V46C118 51.5229 113.523 56 108 56H0V10Z" fill="#1C1B1E"/>
<path d="M32.66 22.72V27H37.86V28.76H32.66V33.14H38.46V35H30.38V20.88H38.46V22.72H32.66ZM43.953 29.52V35H41.673V20.88H46.473C48.0996 20.88 49.3196 21.2667 50.133 22.04C50.9596 22.8133 51.373 23.8733 51.373 25.22C51.373 26.5533 50.953 27.6067 50.113 28.38C49.273 29.14 48.0596 29.52 46.473 29.52H43.953ZM46.233 27.66C48.113 27.66 49.053 26.8467 49.053 25.22C49.053 24.42 48.8263 23.8133 48.373 23.4C47.933 22.9733 47.2196 22.76 46.233 22.76H43.953V27.66H46.233ZM56.1722 32.48V35H53.5922V32.48H56.1722ZM64.2883 33.22C66.4483 31.74 68.1749 30.2933 69.4683 28.88C70.7749 27.4533 71.4283 26.1333 71.4283 24.92C71.4283 24.2 71.2483 23.6267 70.8883 23.2C70.5416 22.7733 69.9749 22.56 69.1883 22.56C68.3749 22.56 67.7616 22.8267 67.3483 23.36C66.9349 23.88 66.7016 24.6267 66.6483 25.6H64.4283C64.5216 23.9867 65.0149 22.7533 65.9083 21.9C66.8149 21.0467 67.9683 20.62 69.3683 20.62C70.7416 20.62 71.8149 20.9867 72.5883 21.72C73.3749 22.44 73.7683 23.44 73.7683 24.72C73.7683 25.7467 73.4483 26.7867 72.8083 27.84C72.1816 28.8933 71.3816 29.8667 70.4083 30.76C69.4349 31.64 68.4283 32.4 67.3883 33.04H74.0883V34.9H64.2883V33.22ZM86.6559 22.68H79.6759V26.88C79.9959 26.4667 80.4493 26.14 81.0359 25.9C81.6226 25.6467 82.2693 25.52 82.9759 25.52C83.9626 25.52 84.7826 25.7333 85.4359 26.16C86.0893 26.5733 86.5693 27.1267 86.8759 27.82C87.1959 28.5133 87.3559 29.28 87.3559 30.12C87.3559 31.6 86.9426 32.8 86.1159 33.72C85.2893 34.6267 84.0893 35.08 82.5159 35.08C81.0359 35.08 79.8426 34.6867 78.9359 33.9C78.0293 33.1133 77.5359 32.0667 77.4559 30.76H79.6959C79.8159 31.48 80.1093 32.0467 80.5759 32.46C81.0559 32.8733 81.6626 33.08 82.3959 33.08C83.3026 33.08 83.9826 32.8067 84.4359 32.26C84.8893 31.7133 85.1159 30.9867 85.1159 30.08C85.1159 29.2267 84.8826 28.56 84.4159 28.08C83.9493 27.5867 83.2826 27.34 82.4159 27.34C81.8026 27.34 81.2626 27.4733 80.7959 27.74C80.3426 28.0067 80.0093 28.36 79.7959 28.8H77.5759V20.66H86.6559V22.68Z" fill="white"/>
</svg>
